<svg xmlns="http://www.w3.org/2000/svg" aria-hidden="true" style="position:absolute;width:0;height:0;overflow:hidden"><defs><symbol id="icon-facebook" viewBox="0 0 32 32"><path d="M19.52 4.64h.96v3.6h-1.2c-.48 0-.96 0-1.2.24s-.24.48-.24 1.04v1.28h2.64v3.04h-2.64v13.2h-4.08V13.76H11.6v-3.04h2.16V9.68c0-1.76.24-3.04.72-3.6.72-1.04 2.16-1.52 4.32-1.52.24.08.48.08.72.08z"/></symbol><symbol id="icon-instagram" viewBox="0 0 32 32"><path d="M28.718 10.755a9.24 9.24 0 0 0-.617-3.206l.021.063a6.588 6.588 0 0 0-3.7-3.722l-.044-.015a9.18 9.18 0 0 0-3.096-.596h-.01C19.904 3.217 19.47 3.2 16 3.2c-3.473 0-3.918 0-5.275.078a9.403 9.403 0 0 0-3.171.618l.064-.022a6.58 6.58 0 0 0-3.727 3.693l-.015.044a9.084 9.084 0 0 0-.594 3.091v.009c-.062 1.367-.08 1.8-.08 5.265 0 3.466 0 3.909.08 5.265a9.312 9.312 0 0 0 .616 3.168l-.022-.064a6.591 6.591 0 0 0 3.701 3.721l.044.015c.917.369 1.98.6 3.091.637h.015c1.369.062 1.802.08 5.274.08s3.917 0 5.274-.08a9.34 9.34 0 0 0 3.173-.616l-.064.022a6.592 6.592 0 0 0 3.726-3.693l.016-.044a9.143 9.143 0 0 0 .594-3.093v-.009c.062-1.366.08-1.799.08-5.266-.002-3.465-.002-3.905-.082-5.264zM15.989 22.533h-.006a6.566 6.566 0 0 1-6.566-6.561 6.565 6.565 0 0 1 6.565-6.56h.008c3.63 0 6.574 2.935 6.574 6.56a6.567 6.567 0 0 1-6.567 6.56h-.005zm6.834-11.836a1.53 1.53 0 1 1 0-3.06l.072-.002a1.531 1.531 0 1 1-.076 3.06h.004z"/><path d="M15.992 19.977a4.005 4.005 0 1 0 0-8.01 4.004 4.004 0 0 0 0 8.008z"/></symbol><symbol id="icon-youtube" viewBox="0 0 32 32"><path d="M24.24 6c-1.36-.08-4.16-.16-8.4-.16h-.56c-4.08 0-6.8.08-8.16.24-1.84.16-3.12.64-3.84 1.28-.64.56-1.12 1.6-1.28 2.96-.08.88-.16 2.72-.16 5.52v.4c0 2.64.08 4.48.24 5.36.24 1.28.64 2.24 1.44 2.8.8.64 2.16 1.04 4.08 1.2 1.36.08 4.16.16 8.4.16h.56c4.08 0 6.8-.08 8.16-.24 1.84-.16 3.12-.64 3.84-1.28.64-.56 1.12-1.6 1.28-2.96.08-.88.16-2.72.16-5.52v-.4c0-2.64-.08-4.48-.24-5.36-.24-1.28-.64-2.24-1.44-2.8-.8-.64-2.16-1.04-4.08-1.2zm-3.12 9.84-8.8 5.28V10.56l8.8 5.28z"/></symbol><symbol id="icon-greenButton" viewBox="0 0 56 32"><path fill="#4dc274" d="M30.84 21.6c-.725.731-1.73 1.183-2.84 1.183s-2.115-.452-2.84-1.183L6.84 3.24a4.002 4.002 0 0 0-5.68 5.64l18.36 18.36c2.171 2.168 5.169 3.509 8.48 3.509s6.309-1.341 8.48-3.51l18.36-18.36a4.002 4.002 0 0 0-5.68-5.64l-18.32 18.36z" style="fill:var(--color1, #4dc274)"/></symbol><symbol id="icon-close" viewBox="0 0 32 32"><path fill="none" stroke="#fff" stroke-linecap="round" stroke-linejoin="round" stroke-width="2.4" d="M24 8 8 24M8 8l16 16" style="stroke:var(--color1, #fff)"/></symbol><symbol id="icon-burger" viewBox="0 0 32 32"><path stroke-linecap="round" stroke-width="2.4" d="M6.07 8.351H30.8M6.07 21.927H30.8M13.722 15.139H30.8"/></symbol><symbol id="icon-check" viewBox="0 0 32 32"><path fill="none" stroke="#fff" stroke-linecap="round" stroke-linejoin="round" stroke-width="3.2" d="M26.667 8 12 22.667 5.333 16" style="stroke:var(--color1, #fff)"/></symbol></defs></svg>