<svg aria-hidden="true" style="position: absolute; width: 0; height: 0; overflow: hidden;" version="1.1" xmlns="http://www.w3.org/2000/svg" xmlns:xlink="http://www.w3.org/1999/xlink">
<defs>
<symbol id="icon-facebook" viewBox="0 0 32 32">
<path d="M19.52 4.64h0.96v3.6h-1.2c-0.48 0-0.96 0-1.2 0.24s-0.24 0.48-0.24 1.040v1.28h2.64v3.040h-2.64v13.2h-4.080v-13.28h-2.16v-3.040h2.16v-1.040c0-1.76 0.24-3.040 0.72-3.6 0.72-1.040 2.16-1.52 4.32-1.52 0.24 0.080 0.48 0.080 0.72 0.080z"></path>
</symbol>
<symbol id="icon-instagram" viewBox="0 0 32 32">
<path d="M28.718 10.755c-0.016-1.133-0.233-2.211-0.617-3.206l0.021 0.063c-0.682-1.722-2.021-3.059-3.7-3.722l-0.044-0.015c-0.92-0.356-1.984-0.573-3.096-0.596l-0.010-0c-1.368-0.062-1.802-0.079-5.272-0.079-3.473 0-3.918 0-5.275 0.078-1.122 0.024-2.186 0.241-3.171 0.618l0.064-0.022c-1.723 0.678-3.062 2.015-3.727 3.693l-0.015 0.044c-0.357 0.919-0.573 1.981-0.594 3.091l-0 0.009c-0.062 1.367-0.080 1.8-0.080 5.265 0 3.466 0 3.909 0.080 5.265 0.022 1.121 0.238 2.184 0.616 3.168l-0.022-0.064c0.682 1.721 2.022 3.058 3.701 3.721l0.044 0.015c0.917 0.369 1.98 0.6 3.091 0.637l0.015 0c1.369 0.062 1.802 0.080 5.274 0.080s3.917 0 5.274-0.080c1.122-0.022 2.188-0.238 3.173-0.616l-0.064 0.022c1.722-0.68 3.060-2.016 3.726-3.693l0.016-0.044c0.356-0.919 0.572-1.983 0.594-3.093l0-0.009c0.062-1.366 0.080-1.799 0.080-5.266-0.002-3.465-0.002-3.905-0.082-5.264zM15.989 22.533c-0.002 0-0.004 0-0.006 0-3.625 0-6.563-2.937-6.566-6.561v-0c0.003-3.624 2.941-6.56 6.565-6.56 0.003 0 0.006 0 0.008 0h-0c3.63 0 6.574 2.935 6.574 6.56-0.004 3.624-2.942 6.56-6.567 6.56-0.002 0-0.003 0-0.005 0h0zM22.823 10.697c-0.845 0-1.53-0.685-1.53-1.53s0.685-1.53 1.53-1.53v0c0.022-0.001 0.047-0.002 0.072-0.002 0.846 0 1.531 0.686 1.531 1.531s-0.686 1.531-1.531 1.531c-0.025 0-0.051-0.001-0.076-0.002l0.004 0z"></path>
<path d="M15.992 19.977c2.212 0 4.005-1.793 4.005-4.005s-1.793-4.005-4.005-4.005v0c-2.211 0-4.004 1.793-4.004 4.004s1.793 4.004 4.004 4.004v0z"></path>
</symbol>
<symbol id="icon-youtube" viewBox="0 0 32 32">
<path d="M24.24 6c-1.36-0.080-4.16-0.16-8.4-0.16h-0.56c-4.080 0-6.8 0.080-8.16 0.24-1.84 0.16-3.12 0.64-3.84 1.28-0.64 0.56-1.12 1.6-1.28 2.96-0.080 0.88-0.16 2.72-0.16 5.52v0.4c0 2.64 0.080 4.48 0.24 5.36 0.24 1.28 0.64 2.24 1.44 2.8 0.8 0.64 2.16 1.040 4.080 1.2 1.36 0.080 4.16 0.16 8.4 0.16h0.56c4.080 0 6.8-0.080 8.16-0.24 1.84-0.16 3.12-0.64 3.84-1.28 0.64-0.56 1.12-1.6 1.28-2.96 0.080-0.88 0.16-2.72 0.16-5.52v-0.4c0-2.64-0.080-4.48-0.24-5.36-0.24-1.28-0.64-2.24-1.44-2.8-0.8-0.64-2.16-1.040-4.080-1.2zM21.12 15.84l-8.8 5.28v-10.56l8.8 5.28z"></path>
</symbol>
<symbol id="icon-greenButton" viewBox="0 0 56 32">
<path fill="#4dc274" style="fill: var(--color1, #4dc274)" d="M30.84 21.6c-0.725 0.731-1.73 1.183-2.84 1.183s-2.115-0.452-2.84-1.183l-0-0-18.32-18.36c-0.725-0.73-1.73-1.182-2.84-1.182-2.21 0-4.002 1.792-4.002 4.002 0 1.1 0.444 2.097 1.162 2.82l18.36 18.36c2.171 2.168 5.169 3.509 8.48 3.509s6.309-1.341 8.48-3.51l18.36-18.36c0.718-0.723 1.162-1.72 1.162-2.82 0-2.21-1.792-4.002-4.002-4.002-1.11 0-2.115 0.452-2.84 1.182l-0 0-18.32 18.36z"></path>
</symbol>
<symbol id="icon-close" viewBox="0 0 32 32">
<path fill="none" stroke="#fff" style="stroke: var(--color1, #fff)" stroke-linejoin="round" stroke-linecap="round" stroke-miterlimit="4" stroke-width="2.4" d="M24 8l-16 16"></path>
<path fill="none" stroke="#fff" style="stroke: var(--color1, #fff)" stroke-linejoin="round" stroke-linecap="round" stroke-miterlimit="4" stroke-width="2.4" d="M8 8l16 16"></path>
</symbol>
<symbol id="icon-burger" viewBox="0 0 32 32">
<path stroke-linejoin="miter" stroke-linecap="round" stroke-miterlimit="4" stroke-width="2.4" d="M6.070 8.351h24.73"></path>
<path stroke-linejoin="miter" stroke-linecap="round" stroke-miterlimit="4" stroke-width="2.4" d="M6.070 21.927h24.73"></path>
<path stroke-linejoin="miter" stroke-linecap="round" stroke-miterlimit="4" stroke-width="2.4" d="M13.722 15.139h17.078"></path>
</symbol>
<symbol id="icon-check" viewBox="0 0 32 32">
<path fill="none" stroke="#fff" style="stroke: var(--color1, #fff)" stroke-linejoin="round" stroke-linecap="round" stroke-miterlimit="4" stroke-width="3.2" d="M26.667 8l-14.667 14.667-6.667-6.667"></path>
</symbol>
</defs>
</svg>
